<?xml version="1.0" encoding="iso-8859-1"?>
<!-- Generator: Adobe Illustrator 19.0.0, SVG Export Plug-In . SVG Version: 6.00 Build 0)  -->
<svg version="1.1" id="Layer_1" xmlns="http://www.w3.org/2000/svg" xmlns:xlink="http://www.w3.org/1999/xlink" x="0px" y="0px"
	 viewBox="0 0 512 512" style="enable-background:new 0 0 512 512;" xml:space="preserve">
<path style="fill:#1D1D1F;" d="M181.242,424.545H97.175c-9.171,0-16.605,7.435-16.605,16.605v54.244
	c0,9.171,7.435,16.605,16.605,16.605h84.068c9.171,0,16.605-7.435,16.605-16.605V441.15
	C197.848,431.98,190.413,424.545,181.242,424.545z"/>
<path style="fill:#3E3E42;" d="M139.209,424.545H97.175c-9.171,0-16.605,7.435-16.605,16.605v54.244
	c0,9.171,7.435,16.605,16.605,16.605h42.034V424.545z"/>
<path style="fill:#1D1D1F;" d="M414.825,424.545h-84.068c-9.171,0-16.605,7.435-16.605,16.605v54.244
	c0,9.171,7.435,16.605,16.605,16.605h84.068c9.171,0,16.605-7.435,16.605-16.605V441.15
	C431.431,431.98,423.996,424.545,414.825,424.545z"/>
<path style="fill:#3E3E42;" d="M372.791,424.545h-42.034c-9.171,0-16.605,7.435-16.605,16.605v54.244
	c0,9.171,7.435,16.605,16.605,16.605h42.034V424.545z"/>
<path style="fill:#ACACB2;" d="M449.808,0H62.192c-19.49,0-35.346,15.856-35.346,35.346v387.618
	c0,19.489,15.856,35.345,35.346,35.345h387.617c19.489,0,35.346-15.856,35.346-35.346V35.346C485.155,15.856,469.299,0,449.808,0z"
	/>
<path style="fill:#3E3E42;" d="M449.808,0H256v458.309h193.808c19.489,0,35.346-15.856,35.346-35.346V35.346
	C485.155,15.856,469.299,0,449.808,0z"/>
<path style="fill:#1D1D1F;" d="M414.305,54.244H97.695c-9.171,0-16.605,7.435-16.605,16.605v316.61
	c0,9.171,7.435,16.605,16.605,16.605h316.61c9.171,0,16.605-7.435,16.605-16.605V70.85C430.91,61.679,423.475,54.244,414.305,54.244
	z"/>
<path style="fill:#3E3E42;" d="M256,54.244H97.695c-9.171,0-16.605,7.435-16.605,16.605v316.61c0,9.171,7.435,16.605,16.605,16.605
	H256V54.244z"/>
<g>
	<path style="fill:#1D1D1F;" d="M99.067,147.235H64.749c-9.171,0-16.605-7.435-16.605-16.605s7.435-16.605,16.605-16.605h34.318
		c9.171,0,16.605,7.435,16.605,16.605S108.237,147.235,99.067,147.235z"/>
	<path style="fill:#1D1D1F;" d="M99.067,344.285H64.749c-9.171,0-16.605-7.435-16.605-16.605c0-9.171,7.435-16.605,16.605-16.605
		h34.318c9.171,0,16.605,7.435,16.605,16.605C115.672,336.851,108.237,344.285,99.067,344.285z"/>
</g>
<path style="fill:#146691;" d="M256,98.026c-73.984,0-134.173,60.189-134.173,134.173S182.016,366.372,256,366.372
	s134.173-60.189,134.173-134.173S329.983,98.026,256,98.026z"/>
<path style="fill:#1A85BD;" d="M121.827,232.199c0,73.984,60.189,134.173,134.173,134.173V98.026
	C182.016,98.026,121.827,158.215,121.827,232.199z"/>
<path style="fill:#80C8ED;" d="M256,147.758c-46.56,0-84.441,37.88-84.441,84.441S209.44,316.64,256,316.64
	s84.441-37.88,84.441-84.441S302.56,147.758,256,147.758z"/>
<path style="fill:#AFD8ED;" d="M171.559,232.199c0,46.56,37.88,84.441,84.441,84.441V147.758
	C209.438,147.758,171.559,185.638,171.559,232.199z"/>
<path style="fill:#F7DC4D;" d="M432.282,248.804H317.151c-9.171,0-16.605-7.435-16.605-16.605s7.435-16.605,16.605-16.605h115.131
	c9.171,0,16.605,7.435,16.605,16.605S441.453,248.804,432.282,248.804z"/>
<g>
</g>
<g>
</g>
<g>
</g>
<g>
</g>
<g>
</g>
<g>
</g>
<g>
</g>
<g>
</g>
<g>
</g>
<g>
</g>
<g>
</g>
<g>
</g>
<g>
</g>
<g>
</g>
<g>
</g>
</svg>
